<svg width="1795" height="1968" viewBox="0 0 1795 1968" fill="none" xmlns="http://www.w3.org/2000/svg">
<path opacity="0.2" fill-rule="evenodd" clip-rule="evenodd" d="M1743.12 548.003L1795 518.402L1743.12 488.814L1557.09 382.679L1505.21 412.275L1319.18 518.402L924.934 743.309L687.02 879.043L687.02 1150.49V1366.56V1638.01L924.934 1502.28L1505.21 1171.24V1338.75L924.934 1669.78L687.02 1805.51V1859.04L878.022 1968L924.934 1941.23L1505.21 1610.2L1743.12 1474.47V1203.02V1035.51V764.062L1505.21 899.79L924.934 1230.83L924.934 1014.77L1505.21 683.726L1557.09 654.131L1743.12 548.003ZM237.917 369.894L0 505.621L0 777.072L0 897.507L0 1168.96L0 1270.98L0 1467.1L66.0161 1504.77L237.917 1602.83V1406.69L237.917 1135.25V1033.23L237.917 761.777V641.344L340.185 582.995L578.1 447.277L687.02 385.134L886.293 271.453L924.934 293.497L991.842 331.669L924.934 369.842L687.02 505.567L578.1 567.705L340.185 703.439V974.89V1076.91V1348.36L340.185 1564.42V1661.18L493.298 1748.52L578.1 1796.89V1700.15V1428.7V1212.63L578.1 941.179V839.155L687.02 777.02L924.934 641.297L1229.76 467.397L1467.67 331.669L1229.76 195.946L1124.21 135.728L924.934 22.0463L886.293 0L687.02 113.684L648.378 135.728L578.1 175.826L340.185 311.544L237.917 369.894Z" fill="white"/>
</svg>
